<?xml version="1.0" standalone="no"?><svg version="1.0" xmlns="http://www.w3.org/2000/svg" width="533.3333" height="533.3333" viewBox="0 0 400 400"><metadata>Created by potrace 1.14, written by Peter Selinger 2001-2017</metadata><path d="M22 5.7C14.8 8.6 8.5 15.3 6.5 22.4 5.2 27 5 37.4 5.2 98.6l.3 71 3.3 5.4c1.8 3 5 6.7 7 8.1 6.6 4.7 10.2 5.3 31.2 5.4h19.5l.5 21.9c.5 21.4.5 21.8 2.9 23.7 3.3 2.7 6.5 3.3 9.7 1.7 1.6-.7 9.5-9.4 17.6-19.3 8.2-9.9 16.8-20.3 19.2-23l4.4-5.1 7.1.1c4.3.1 7.2-.3 7.2-.9.1-.6.3-3.4.4-6.1.1-2.8.3-5.5.4-6 0-.6 2.1-.9 4.6-.7l4.5.4.2 70.6c.3 79.9-.2 74.5 8.4 82.9 8 7.7 7.2 7.6 71.6 7.7l56.8.1 5.1 6c7.6 8.9 9.4 11 21.4 25.8 6.1 7.4 12.4 14.1 14.1 15 3.8 1.9 7.6 1.2 10.5-1.9 2.3-2.4 2.3-3 2.4-23.8v-21.3H354c21.1 0 24.7-.5 30.3-4 5.2-3.3 8.3-6.8 10.9-12.3 2.1-4.4 2.1-5.4 2.2-76l.1-71.5-2.8-5.7c-3.1-6.4-7-10.1-13.7-13.2-4.3-1.9-6.3-2-58.2-2.1-47.5 0-53.8.1-53.9 1.5 0 .8 0 3.9.1 6.7.1 2.9-.2 5.3-.7 5.4-.4.1-3.1.2-5.8.3l-5 .2V95.5c0-78.8.3-75.3-7.6-83.4-4.8-4.8-7.9-6.6-13.4-7.7-2.2-.4-50.1-.8-106.5-.8L27.5 3.5 22 5.7z"/></svg>