<?xml version="1.0" encoding="utf-8"?><svg xmlns="http://www.w3.org/2000/svg" viewBox="0 0 400 300" xml:space="preserve"><path fill="#F2F0E6" d="m283.5 229.4 8.6 18.9 23.7 24.3h7.5l9.7-43.2h-49.5z"/><path fill="#F2F0E6" d="M191.9 115.6H361c9.2 0 16.7 7.5 16.7 16.7v89.6c0 9.2-7.5 16.7-16.7 16.7H191.9c-9.2 0-16.7-7.5-16.7-16.7v-89.5c0-9.3 7.5-16.8 16.7-16.8z"/><path fill="#00A3DD" d="M44.2 142.2c14.2 7.5 29.3 11.3 29.3 11.3l3.3 16.2 2.7 9.1 10.8-6.9 17.2-15.1 15.2-17.8-65.7-7.5-12.6 4.3"/><path fill="#00A3DD" d="M200.9 142.8H44.2c-12.4 0-22.6-10.2-22.6-22.6V40.9c0-12.4 10.2-22.6 22.6-22.6h156.7c12.4 0 22.6 10.2 22.6 22.6v79.2c0 12.4-10.1 22.7-22.6 22.7z"/><path fill="none" d="M8.7 5.4h227.6v196.3H8.7V5.4z"/><path fill="#333" d="M82.2 174v-31.4H49.4c-12.7 0-23-11-23-24.5V47.4c0-13.5 10.3-24.5 23-24.5h146.7c12.7 0 23 11 23 24.5v70.8c0 13.5-10.3 24.5-23 24.5v17.2c22.2 0 40.2-18.8 40.2-41.7V47.4c0-23-18-41.7-40.2-41.7H49.3C27.1 5.7 9.1 24.4 9.1 47.4v70.8c0 23 18 41.7 40.2 41.7h15.6v30.5c0 4.7 3 8.9 7.5 10.6 1.3.5 2.6.7 3.9.7 3.2 0 6.2-1.4 8.3-3.9l32-37.9h32v-17.2h-39.9L82.2 174z"/><path fill="none" d="M163.7 98.3h227.6v196.3H163.7V98.3z"/><path fill="#333" d="M350.7 98.4h-99.3v17.2h99.2c12.7 0 23 11 23 24.5v70.8c0 13.5-10.3 24.5-23 24.5h-32.8v31.5l-26.5-31.4H204c-12.7 0-23-11-23-24.5v-70.8c0-13.5 10.3-24.5 23-24.5V98.5c-22.2 0-40.2 18.8-40.2 41.7V211c0 23 18 41.7 40.2 41.7h79.4l32 37.9c2.1 2.5 5.2 3.9 8.2 3.9 1.3 0 2.6-.2 3.9-.7 4.6-1.6 7.5-5.9 7.5-10.6v-30.5h15.6c22.2 0 40.2-18.8 40.2-41.7v-70.8c.1-23.1-18-41.8-40.1-41.8z"/><path fill="#F8D80E" d="M74 45.6c0 .1 0 .1 0 0l-.1.1c0 .1 0 .1-.1.1h-.1v41.5H60.1v.1c0 .1 0 .1-.1.1s-.1 0-.1.1 0 .1-.1.1h-.1v13.6h.1c.1 0 .1 0 .1.1s0 .1.1.1.1 0 .1.1v.1h27.6v-.1c0-.1 0-.1.1-.1s.1 0 .1-.1 0-.1.1-.1h.1V59.8h27.5v41.5H102v.1c0 .1 0 .1-.1.1s-.1 0-.1.1 0 .1-.1.1h-.1v13.6h.1c.1 0 .1 0 .1.1s0 .1.1.1.1 0 .1.1v.1h41.5v-.1c0-.1 0-.1.1-.1s.1 0 .1-.1 0-.1.1-.1h.1v-13.6h-.1c-.1 0-.1 0-.1-.1s0-.1-.1-.1-.1 0-.1-.1v-.1h-13.6V59.8h27.5v41.5h.1c.1 0 .1 0 .1.1s0 .1.1.1.1 0 .1.1v.1h27.6v-.1c0-.1 0-.1.1-.1s.1 0 .1-.1 0-.1.1-.1h.1V87.7h-.1c-.1 0-.1 0-.1-.1s0-.1-.1-.1-.1 0-.1-.1v-.1h-13.6V45.9h-.1c-.1 0-.1 0-.1-.1s0-.1-.1-.1-.1 0-.1-.1v-.1l-97.4.1z"/><path fill="#565552" d="M320.5 218.2H302l-7.3-19.1h-33.5l-6.9 19.1h-18l32.7-83.9h17.9l33.6 83.9zM289.3 185l-11.5-31-11.3 31h22.8z"/></svg>